<svg width="169" height="152" viewBox="0 0 169 152" fill="none" xmlns="http://www.w3.org/2000/svg">
<path d="M167.652 149.062C168.288 149.062 168.606 149.539 168.606 150.493C168.606 151.446 168.288 151.923 167.652 151.923C164.632 151.923 159.943 151.764 153.585 151.446C147.228 151.128 142.618 150.969 139.757 150.969C136.261 150.969 131.81 151.128 126.406 151.446C121.32 151.764 117.426 151.923 114.724 151.923C114.088 151.923 113.77 151.446 113.77 150.493C113.77 149.539 114.088 149.062 114.724 149.062C120.605 149.062 124.896 148.506 127.598 147.393C130.3 146.281 131.651 144.373 131.651 141.671C131.651 139.446 130.618 136.029 128.552 131.419L107.333 86.3591H50.5903L35.5702 121.644C33.345 127.049 32.2324 131.419 32.2324 134.757C32.2324 139.684 34.1397 143.34 37.9544 145.724C41.928 147.95 47.8088 149.062 55.5971 149.062C56.3918 149.062 56.7891 149.539 56.7891 150.493C56.7891 151.446 56.3918 151.923 55.5971 151.923C52.7361 151.923 48.6036 151.764 43.1995 151.446C37.1597 151.128 31.9145 150.969 27.4641 150.969C23.3316 150.969 18.5633 151.128 13.1593 151.446C8.39096 151.764 4.41738 151.923 1.23852 151.923C0.443805 151.923 0.0464478 151.446 0.0464478 150.493C0.0464478 149.539 0.443805 149.062 1.23852 149.062C5.68893 149.062 9.42409 148.267 12.444 146.678C15.6229 144.93 18.5633 141.989 21.2653 137.857C24.1263 133.565 27.2257 127.446 30.5635 119.499L80.869 0.768234C81.1869 0.291402 81.7432 0.0529785 82.5379 0.0529785C83.3326 0.0529785 83.8095 0.291402 83.9684 0.768234L140.234 119.26C145.638 131.022 150.248 138.969 154.062 143.102C157.877 147.075 162.407 149.062 167.652 149.062ZM52.4977 81.5908H105.187L77.2928 22.7024L52.4977 81.5908Z" fill="#869B63"/>
</svg>
