<svg width="108" height="150" viewBox="0 0 108 150" fill="none" xmlns="http://www.w3.org/2000/svg">
<path d="M104.247 114.399C104.247 114.082 104.565 113.923 105.201 113.923C105.677 113.923 106.075 114.002 106.393 114.161C106.87 114.32 107.108 114.558 107.108 114.876C105.677 124.89 104.962 135.38 104.962 146.347C104.962 147.619 104.644 148.572 104.009 149.208C103.532 149.685 102.578 149.923 101.148 149.923L1.25185 149.923C0.933967 149.923 0.775024 149.446 0.775024 148.493C0.775024 147.539 0.933967 147.062 1.25185 147.062C7.29169 147.062 11.6626 146.665 14.3647 145.87C17.2256 145.075 19.1329 143.565 20.0866 141.34C21.1992 138.956 21.7555 135.38 21.7555 130.612L21.7555 20.2256C21.7555 15.4574 21.1992 11.9606 20.0866 9.7354C19.1329 7.51019 17.2256 6.00023 14.3647 5.20551C11.6626 4.25186 7.29169 3.77503 1.25185 3.77503C0.933967 3.77503 0.775024 3.2982 0.775024 2.34454C0.775024 1.39089 0.933967 0.914062 1.25185 0.914063L97.0945 0.914063C98.525 0.914063 99.2403 1.62931 99.2403 3.05978L99.7171 32.3848C99.7171 32.8616 99.3197 33.1795 98.525 33.3384C97.7303 33.3384 97.2535 33.1 97.0945 32.6232C96.6177 24.1992 94.0746 17.6826 89.4653 13.0732C84.8559 8.30491 78.7366 5.92076 71.1073 5.92076L56.564 5.92076C51.001 5.92076 46.8685 6.39759 44.1665 7.35124C41.6234 8.14596 39.7955 9.65592 38.6829 11.8811C37.7293 13.9474 37.2525 17.1262 37.2525 21.4177L37.2525 69.8159L66.339 69.8159C73.9683 69.8159 79.3724 68.5443 82.5512 66.0012C85.889 63.4582 87.5579 59.1667 87.5579 53.1269C87.5579 52.809 88.0348 52.65 88.9884 52.65C89.9421 52.65 90.4189 52.809 90.4189 53.1269L90.1805 72.4384C90.1805 77.0478 90.26 80.5445 90.4189 82.9287L90.6573 94.3726C90.6573 94.6905 90.1805 94.8494 89.2269 94.8494C88.2732 94.8494 87.7964 94.6905 87.7964 94.3726C87.7964 87.3791 86.048 82.3724 82.5512 79.3525C79.2134 76.3326 73.571 74.8226 65.6238 74.8226L37.2525 74.8226L37.2525 129.658C37.2525 134.108 37.7293 137.367 38.6829 139.433C39.6366 141.499 41.385 142.93 43.9281 143.724C46.4712 144.519 50.4447 144.916 55.8488 144.916H74.922C82.5512 144.916 88.909 142.214 93.9951 136.81C99.0813 131.406 102.499 123.936 104.247 114.399Z" fill="#869B63"/>
</svg>
