<svg width="100" height="150" viewBox="0 0 100 150" fill="none" xmlns="http://www.w3.org/2000/svg">
<path d="M99.7171 32.3848C99.7171 32.8616 99.3198 33.1795 98.525 33.3384C97.7303 33.3384 97.2535 33.1 97.0945 32.6232C96.6177 24.1992 94.0746 17.6826 89.4653 13.0732C84.8559 8.30491 78.7366 5.92076 71.1074 5.92076L56.5641 5.92076C51.16 5.92076 47.1069 6.31812 44.4049 7.11283C41.7029 7.90755 39.7956 9.33804 38.683 11.4043C37.7293 13.4706 37.2525 16.4905 37.2525 20.4641L37.2525 72.6769L61.3324 72.6769C69.7563 72.6769 75.7167 71.4053 79.2134 68.8622C82.8691 66.1602 84.697 61.8687 84.697 55.9878C84.697 55.6699 85.1738 55.511 86.1275 55.511C87.0811 55.511 87.558 55.6699 87.558 55.9878L87.3195 75.2994C87.3195 79.9088 87.399 83.4055 87.558 85.7897L87.7964 97.2336C87.7964 97.5514 87.3195 97.7104 86.3659 97.7104C85.4122 97.7104 84.9354 97.5514 84.9354 97.2336C84.9354 90.2401 83.0281 85.2334 79.2134 82.2134C75.5578 79.1935 69.359 77.6836 60.6171 77.6836L37.2525 77.6836L37.2525 129.658C37.2525 134.744 37.8882 138.479 39.1598 140.863C40.5903 143.089 43.2923 144.678 47.2659 145.632C51.2395 146.585 57.5177 147.062 66.1006 147.062C66.5775 147.062 66.8159 147.539 66.8159 148.493C66.8159 149.446 66.5775 149.923 66.1006 149.923C59.584 149.923 54.4978 149.844 50.8421 149.685L29.3848 149.446L13.1726 149.685C10.3116 149.844 6.25857 149.923 1.01345 149.923C0.695564 149.923 0.536621 149.446 0.536621 148.493C0.536621 147.539 0.695564 147.062 1.01345 147.062C7.05329 147.062 11.5037 146.665 14.3647 145.87C17.2256 145.075 19.133 143.565 20.0866 141.34C21.1992 138.956 21.7555 135.38 21.7555 130.612L21.7555 20.2256C21.7555 15.4574 21.1992 11.9606 20.0866 9.7354C19.133 7.51019 17.2256 6.00023 14.3647 5.20551C11.6626 4.25186 7.2917 3.77503 1.25186 3.77503C0.933978 3.77503 0.775036 3.2982 0.775036 2.34454C0.775036 1.39089 0.933978 0.914063 1.25186 0.914063L97.0945 0.914063C98.525 0.914063 99.2403 1.62931 99.2403 3.05978L99.7171 32.3848Z" fill="#869B63"/>
</svg>
