<svg width="160" height="155" viewBox="0 0 160 155" fill="none" xmlns="http://www.w3.org/2000/svg">
<path d="M75.5774 154.493C60.7957 154.493 47.6035 151.075 36.0006 144.241C24.5567 137.247 15.6559 127.87 9.29817 116.108C3.09939 104.187 0 91.2333 0 77.2463C0 60.8752 4.13252 46.8882 12.3976 35.2854C20.6626 23.5236 31.2323 14.7022 44.1067 8.82133C57.14 2.94044 70.4118 0 83.9219 0C99.0215 0 112.293 3.57622 123.737 10.7287C135.181 17.7222 143.923 27.0203 149.963 38.6232C156.162 50.226 159.261 62.5441 159.261 75.5774C159.261 90.0413 155.446 103.313 147.817 115.393C140.188 127.472 129.936 137.009 117.062 144.002C104.346 150.996 90.5181 154.493 75.5774 154.493ZM83.9219 149.486C94.7301 149.486 104.426 146.863 113.009 141.618C121.75 136.373 128.585 128.664 133.512 118.492C138.598 108.32 141.141 96.24 141.141 82.2531C141.141 67.3124 138.36 54.0406 132.797 42.4378C127.234 30.835 119.366 21.7752 109.194 15.2585C99.1805 8.74187 87.4187 5.48354 73.9085 5.48354C56.4248 5.48354 42.7557 11.126 32.9012 22.411C23.0467 33.6959 18.1195 49.1929 18.1195 68.9018C18.1195 83.8425 20.901 97.5116 26.464 109.909C32.027 122.148 39.8152 131.843 49.8287 138.996C59.8421 145.989 71.2065 149.486 83.9219 149.486Z" fill="#869B63"/>
</svg>
