<svg width="89" height="155" viewBox="0 0 89 155" fill="none" xmlns="http://www.w3.org/2000/svg">
<path d="M18.5701 30.8086C18.5701 37.0074 20.0801 42.4114 23.1 47.0208C26.1199 51.6301 29.7756 55.5242 34.0671 58.7031C38.5175 61.723 44.5573 65.5376 52.1866 70.147C60.6106 75.2332 67.0478 79.4452 71.4982 82.783C76.1076 86.1208 80.0017 90.4122 83.1805 95.6573C86.5183 100.744 88.1872 106.863 88.1872 114.015C88.1872 121.645 86.2799 128.559 82.4653 134.757C78.6506 140.956 73.0082 145.883 65.5378 149.539C58.2264 153.036 49.4051 154.784 39.0738 154.784C26.8352 154.784 15.6297 152.003 5.45734 146.44C4.66263 145.963 4.10633 145.407 3.78844 144.771C3.6295 144.135 3.47055 143.181 3.31161 141.91L0.212221 109.485C0.0532778 108.85 0.371164 108.452 1.16588 108.293C2.11954 108.134 2.67584 108.373 2.83478 109.009C5.37787 120.452 10.0667 130.307 16.9012 138.572C23.8947 146.837 33.1134 150.97 44.5573 150.97C52.5045 150.97 59.1801 148.824 64.5842 144.532C70.1472 140.082 72.9287 133.088 72.9287 123.552C72.9287 116.399 71.3393 110.201 68.1604 104.956C64.9815 99.7104 61.0874 95.4189 56.4781 92.0811C52.0277 88.5844 45.9084 84.5313 38.1201 79.922C30.4909 75.3126 24.451 71.3391 20.0006 68.0013C15.7092 64.6634 12.0535 60.4515 9.03356 55.3653C6.01364 50.2791 4.50368 44.3187 4.50368 37.4842C4.50368 29.537 6.56994 22.7819 10.7025 17.2189C14.9939 11.497 20.4775 7.285 27.1531 4.58296C33.9876 1.72199 41.2195 0.291504 48.8488 0.291504C58.2264 0.291504 67.5246 2.19882 76.7433 6.01345C79.1275 6.80817 80.3195 8.15918 80.3195 10.0665L81.9884 37.4842C81.9884 38.12 81.5911 38.4378 80.7964 38.4378C80.0016 38.4378 79.5248 38.12 79.3659 37.4842C78.0943 29.2191 74.6771 21.5899 69.1141 14.5964C63.551 7.44393 55.5244 3.86771 45.0342 3.86771C36.1334 3.86771 29.4577 6.49028 25.0073 11.7354C20.7159 16.8216 18.5701 23.1793 18.5701 30.8086Z" fill="#869B63"/>
</svg>
