<svg width="134" height="156" viewBox="0 0 134 156" fill="none" xmlns="http://www.w3.org/2000/svg">
<path d="M36.0604 11.2055C26.047 11.2055 18.4972 13.7486 13.411 18.8348C8.4838 23.9209 4.90758 32.5833 2.68237 44.822C2.68237 45.1398 2.20554 45.2988 1.25189 45.2988C0.457171 45.2988 0.0598145 45.1398 0.0598145 44.822C0.695587 39.1 1.41083 31.6297 2.20555 22.411C3.00026 13.1923 3.39762 6.27825 3.39762 1.66891C3.39762 0.874193 3.79498 0.476837 4.58969 0.476837C5.54335 0.476837 6.02018 0.874193 6.02018 1.66891C6.02018 5.16566 10.3116 6.91403 18.8946 6.91403C32.4047 7.39085 48.3785 7.62926 66.8159 7.62926C76.1936 7.62926 86.1275 7.47032 96.6177 7.15244L112.83 6.91403C118.552 6.91403 122.764 6.51667 125.466 5.72195C128.327 4.92723 130.155 3.3378 130.949 0.953659C131.108 0.317885 131.585 0 132.38 0C133.175 0 133.572 0.317885 133.572 0.953659C133.095 5.56301 132.618 12.5565 132.142 21.9341C131.665 31.3118 131.426 38.9411 131.426 44.822C131.426 45.1398 130.949 45.2988 129.996 45.2988C129.042 45.2988 128.565 45.1398 128.565 44.822C128.088 32.4244 125.545 23.762 120.936 18.8348C116.327 13.7486 108.697 11.2055 98.0482 11.2055C90.8958 11.2055 85.8096 11.5234 82.7897 12.1591C79.7698 12.7949 77.7035 14.1459 76.5909 16.2122C75.4783 18.2785 74.922 21.7752 74.922 26.7024L74.922 136.612C74.922 141.539 75.4783 145.115 76.5909 147.34C77.7035 149.565 79.8493 151.075 83.0281 151.87C86.207 152.665 91.2137 153.062 98.0482 153.062C98.5251 153.062 98.7635 153.539 98.7635 154.493C98.7635 155.446 98.5251 155.923 98.0482 155.923C92.8031 155.923 88.5911 155.844 85.4123 155.685L66.8159 155.446L48.9348 155.685C45.7559 155.844 41.385 155.923 35.822 155.923C35.5041 155.923 35.3452 155.446 35.3452 154.493C35.3452 153.539 35.5041 153.062 35.822 153.062C42.6566 153.062 47.6633 152.665 50.8421 151.87C54.021 151.075 56.1667 149.565 57.2793 147.34C58.5509 144.956 59.1866 141.38 59.1866 136.612L59.1866 26.2256C59.1866 21.2984 58.6303 17.8811 57.5177 15.9738C56.4051 13.9075 54.3389 12.636 51.319 12.1591C48.299 11.5234 43.2129 11.2055 36.0604 11.2055Z" fill="#869B63"/>
</svg>
