<svg width="92" height="151" viewBox="0 0 92 151" fill="none" xmlns="http://www.w3.org/2000/svg">
<path d="M90.4994 0.914063C90.9763 0.914063 91.2147 1.39089 91.2147 2.34454C91.2147 3.2982 90.9763 3.77503 90.4994 3.77503C85.0954 3.77503 80.4066 5.20552 76.433 8.0665C72.4594 10.9275 69.1216 15.7752 66.4196 22.6098L15.6372 149.685C15.4783 150.321 14.6041 150.638 13.0147 150.638C11.7431 150.638 10.8689 150.321 10.3921 149.685L-48.9731 20.7025C-51.6752 14.5037 -54.5361 10.1328 -57.5561 7.58967C-60.576 5.04657 -64.4701 3.77503 -69.2384 3.77503C-69.7152 3.77503 -69.9536 3.2982 -69.9536 2.34454C-69.9536 1.39089 -69.7152 0.914062 -69.2384 0.914063L-60.1786 1.15247C-55.7282 1.47036 -52.152 1.6293 -49.45 1.6293C-43.0922 1.6293 -36.2577 1.47036 -28.9463 1.15247L-19.1713 0.914063C-18.6945 0.914063 -18.4561 1.39089 -18.4561 2.34454C-18.4561 3.2982 -18.6945 3.77503 -19.1713 3.77503C-29.0258 3.77503 -33.953 6.55653 -33.953 12.1195C-33.953 14.0269 -33.2378 16.57 -31.8073 19.7488L18.0214 128.943L60.936 21.4177C62.2076 18.0799 62.8433 15.4574 62.8433 13.55C62.8433 10.2122 61.3334 7.7486 58.3135 6.15917C55.2935 4.56974 50.6047 3.77503 44.247 3.77503C43.7702 3.77503 43.5318 3.2982 43.5318 2.34454C43.5318 1.39089 43.7702 0.914063 44.247 0.914063L54.4988 1.15247C59.9029 1.47036 64.8301 1.6293 69.2805 1.6293C72.6183 1.6293 76.3535 1.47036 80.486 1.15247L90.4994 0.914063Z" fill="#869B63"/>
</svg>
