<svg width="162" height="26" viewBox="0 0 162 26" fill="none" xmlns="http://www.w3.org/2000/svg">
<path d="M26.1685 1.12762C26.2462 1.12762 26.2851 1.20538 26.2851 1.36092C26.2851 1.51645 26.2462 1.59422 26.1685 1.59422C25.2871 1.59422 24.5224 1.82752 23.8743 2.29412C23.2263 2.76072 22.6819 3.55134 22.2412 4.666L13.9591 25.3908C13.9332 25.4945 13.7906 25.5463 13.5314 25.5463C13.324 25.5463 13.1814 25.4945 13.1037 25.3908L3.42173 4.35493C2.98105 3.34397 2.51445 2.6311 2.02193 2.21635C1.52941 1.80159 0.894316 1.59422 0.11665 1.59422C0.0388833 1.59422 0 1.51645 0 1.36092C0 1.20538 0.0388833 1.12762 0.11665 1.12762L1.59422 1.1665C2.32004 1.21834 2.90329 1.24427 3.34396 1.24427C4.38085 1.24427 5.49551 1.21834 6.68793 1.1665L8.28214 1.12762C8.35991 1.12762 8.39879 1.20538 8.39879 1.36092C8.39879 1.51645 8.35991 1.59422 8.28214 1.59422C6.67497 1.59422 5.87138 2.04786 5.87138 2.95513C5.87138 3.2662 5.98803 3.68095 6.22133 4.1994L14.3479 22.008L21.3469 4.47158C21.5543 3.92722 21.658 3.4995 21.658 3.18843C21.658 2.64407 21.4117 2.24227 20.9192 1.98305C20.4267 1.72383 19.662 1.59422 18.6251 1.59422C18.5473 1.59422 18.5085 1.51645 18.5085 1.36092C18.5085 1.20538 18.5473 1.12762 18.6251 1.12762L20.2971 1.1665C21.1784 1.21834 21.982 1.24427 22.7078 1.24427C23.2522 1.24427 23.8614 1.21834 24.5354 1.1665L26.1685 1.12762Z" fill="white"/>
<path d="M44.522 19.6361C44.522 19.5842 44.5738 19.5583 44.6775 19.5583C44.7553 19.5583 44.8201 19.5713 44.8719 19.5972C44.9497 19.6231 44.9886 19.662 44.9886 19.7138C44.7553 21.3469 44.6386 23.0578 44.6386 24.8464C44.6386 25.0538 44.5868 25.2093 44.4831 25.313C44.4053 25.3908 44.2498 25.4297 44.0165 25.4297H27.7244C27.6726 25.4297 27.6466 25.3519 27.6466 25.1964C27.6466 25.0408 27.6726 24.9631 27.7244 24.9631C28.7094 24.9631 29.4223 24.8983 29.863 24.7687C30.3296 24.6391 30.6407 24.3928 30.7962 24.0299C30.9776 23.6411 31.0684 23.0578 31.0684 22.2801V4.27716C31.0684 3.4995 30.9776 2.92921 30.7962 2.5663C30.6407 2.20339 30.3296 1.95713 29.863 1.82752C29.4223 1.67198 28.7094 1.59422 27.7244 1.59422C27.6726 1.59422 27.6466 1.51645 27.6466 1.36092C27.6466 1.20538 27.6726 1.12762 27.7244 1.12762H43.3555C43.5888 1.12762 43.7054 1.24427 43.7054 1.47757L43.7832 6.26021C43.7832 6.33798 43.7184 6.38982 43.5888 6.41575C43.4592 6.41575 43.3814 6.37686 43.3555 6.2991C43.2777 4.92522 42.863 3.86241 42.1112 3.11067C41.3595 2.333 40.3615 1.94417 39.1172 1.94417H36.7453C35.8381 1.94417 35.1641 2.02193 34.7234 2.17747C34.3086 2.30708 34.0105 2.55334 33.8291 2.91625C33.6735 3.25324 33.5958 3.77168 33.5958 4.47158V12.3649H38.3395C39.5838 12.3649 40.4652 12.1575 40.9836 11.7428C41.528 11.328 41.8002 10.6281 41.8002 9.64306C41.8002 9.59122 41.8779 9.56529 42.0335 9.56529C42.189 9.56529 42.2668 9.59122 42.2668 9.64306L42.2279 12.7926C42.2279 13.5444 42.2408 14.1146 42.2668 14.5035L42.3056 16.3699C42.3056 16.4217 42.2279 16.4476 42.0723 16.4476C41.9168 16.4476 41.839 16.4217 41.839 16.3699C41.839 15.2293 41.5539 14.4127 40.9836 13.9202C40.4392 13.4277 39.519 13.1814 38.2229 13.1814H33.5958V22.1246C33.5958 22.8504 33.6735 23.3818 33.8291 23.7188C33.9846 24.0558 34.2698 24.2891 34.6845 24.4187C35.0993 24.5483 35.7473 24.6131 36.6287 24.6131H39.7393C40.9836 24.6131 42.0205 24.1725 42.85 23.2911C43.6795 22.4097 44.2369 21.1914 44.522 19.6361Z" fill="white"/>
<path d="M64.6678 6.26021C64.6678 6.33798 64.603 6.38982 64.4734 6.41575C64.3438 6.41575 64.266 6.37686 64.2401 6.2991C64.1623 4.92522 63.7476 3.86241 62.9958 3.11067C62.2441 2.333 61.2461 1.94417 60.0018 1.94417H57.6299C56.7486 1.94417 56.0875 2.00897 55.6469 2.13858C55.2062 2.26819 54.8951 2.50149 54.7137 2.83848C54.5581 3.17547 54.4804 3.66799 54.4804 4.31605V12.8315H58.4076C59.7815 12.8315 60.7535 12.6241 61.3238 12.2094C61.92 11.7687 62.2181 11.0688 62.2181 10.1097C62.2181 10.0578 62.2959 10.0319 62.4515 10.0319C62.607 10.0319 62.6847 10.0578 62.6847 10.1097L62.6459 13.2592C62.6459 14.011 62.6588 14.5812 62.6847 14.9701L62.7236 16.8365C62.7236 16.8883 62.6459 16.9142 62.4903 16.9142C62.3348 16.9142 62.257 16.8883 62.257 16.8365C62.257 15.6959 61.946 14.8793 61.3238 14.3868C60.7276 13.8943 59.7167 13.648 58.2909 13.648H54.4804V22.1246C54.4804 22.9541 54.5841 23.5633 54.7914 23.9521C55.0247 24.315 55.4654 24.5743 56.1135 24.7298C56.7615 24.8853 57.7854 24.9631 59.1852 24.9631C59.263 24.9631 59.3019 25.0408 59.3019 25.1964C59.3019 25.3519 59.263 25.4297 59.1852 25.4297C58.1224 25.4297 57.2929 25.4167 56.6967 25.3908L53.1972 25.3519L50.5532 25.3908C50.0866 25.4167 49.4255 25.4297 48.5701 25.4297C48.5183 25.4297 48.4923 25.3519 48.4923 25.1964C48.4923 25.0408 48.5183 24.9631 48.5701 24.9631C49.5552 24.9631 50.281 24.8983 50.7476 24.7687C51.2142 24.6391 51.5252 24.3928 51.6808 24.0299C51.8622 23.6411 51.953 23.0578 51.953 22.2801V4.27716C51.953 3.4995 51.8622 2.92921 51.6808 2.5663C51.5252 2.20339 51.2142 1.95713 50.7476 1.82752C50.3069 1.67198 49.594 1.59422 48.609 1.59422C48.5571 1.59422 48.5312 1.51645 48.5312 1.36092C48.5312 1.20538 48.5571 1.12762 48.609 1.12762H64.2401C64.4734 1.12762 64.59 1.24427 64.59 1.47757L64.6678 6.26021Z" fill="white"/>
<path d="M92.9885 24.9631C93.0922 24.9631 93.144 25.0408 93.144 25.1964C93.144 25.3519 93.0922 25.4297 92.9885 25.4297C92.496 25.4297 91.7313 25.4038 90.6944 25.3519C89.6575 25.3001 88.9058 25.2741 88.4392 25.2741C87.8689 25.2741 87.1431 25.3001 86.2617 25.3519C85.4322 25.4038 84.7971 25.4297 84.3564 25.4297C84.2527 25.4297 84.2009 25.3519 84.2009 25.1964C84.2009 25.0408 84.2527 24.9631 84.3564 24.9631C85.3155 24.9631 86.0154 24.8724 86.4561 24.6909C86.8968 24.5094 87.1171 24.1984 87.1171 23.7577C87.1171 23.3948 86.9486 22.8375 86.6116 22.0857L83.151 14.7368H73.8968L71.4472 20.4915C71.0843 21.3729 70.9028 22.0857 70.9028 22.6301C70.9028 23.4337 71.2139 24.0299 71.836 24.4187C72.484 24.7816 73.4432 24.9631 74.7134 24.9631C74.843 24.9631 74.9078 25.0408 74.9078 25.1964C74.9078 25.3519 74.843 25.4297 74.7134 25.4297C74.2468 25.4297 73.5728 25.4038 72.6914 25.3519C71.7064 25.3001 70.851 25.2741 70.1251 25.2741C69.4512 25.2741 68.6735 25.3001 67.7921 25.3519C67.0145 25.4038 66.3664 25.4297 65.848 25.4297C65.7184 25.4297 65.6535 25.3519 65.6535 25.1964C65.6535 25.0408 65.7184 24.9631 65.848 24.9631C66.5738 24.9631 67.183 24.8335 67.6755 24.5743C68.1939 24.2891 68.6735 23.8095 69.1142 23.1356C69.5808 22.4357 70.0862 21.4377 70.6306 20.1416L78.835 0.777669C78.8868 0.699901 78.9776 0.661017 79.1072 0.661017C79.2368 0.661017 79.3146 0.699901 79.3405 0.777669L88.5169 20.1027C89.3983 22.0209 90.15 23.317 90.7722 23.991C91.3943 24.6391 92.1331 24.9631 92.9885 24.9631ZM74.2079 13.9591H82.8011L78.2517 4.35493L74.2079 13.9591Z" fill="white"/>
<path d="M97.7259 1.82752C96.0928 1.82752 94.8615 2.24227 94.032 3.07178C93.2284 3.90129 92.6451 5.31405 92.2822 7.31006C92.2822 7.36191 92.2045 7.38783 92.0489 7.38783C91.9193 7.38783 91.8545 7.36191 91.8545 7.31006C91.9582 6.37686 92.0749 5.15852 92.2045 3.65503C92.3341 2.15154 92.3989 1.02393 92.3989 0.272185C92.3989 0.142574 92.4637 0.0777686 92.5933 0.0777686C92.7488 0.0777686 92.8266 0.142574 92.8266 0.272185C92.8266 0.842474 93.5265 1.12762 94.9263 1.12762C97.1297 1.20538 99.7349 1.24427 102.742 1.24427C104.271 1.24427 105.891 1.21834 107.602 1.1665L110.246 1.12762C111.18 1.12762 111.866 1.06281 112.307 0.933199C112.774 0.803588 113.072 0.544367 113.201 0.155534C113.227 0.0518449 113.305 0 113.435 0C113.564 0 113.629 0.0518449 113.629 0.155534C113.551 0.907277 113.474 2.04785 113.396 3.57726C113.318 5.10667 113.279 6.35094 113.279 7.31006C113.279 7.36191 113.201 7.38783 113.046 7.38783C112.89 7.38783 112.813 7.36191 112.813 7.31006C112.735 5.28813 112.32 3.87537 111.568 3.07178C110.817 2.24227 109.572 1.82752 107.836 1.82752C106.669 1.82752 105.84 1.87936 105.347 1.98305C104.855 2.08674 104.518 2.30708 104.336 2.64407C104.155 2.98106 104.064 3.55134 104.064 4.35493V22.2801C104.064 23.0837 104.155 23.667 104.336 24.0299C104.518 24.3928 104.867 24.6391 105.386 24.7687C105.904 24.8983 106.721 24.9631 107.836 24.9631C107.913 24.9631 107.952 25.0408 107.952 25.1964C107.952 25.3519 107.913 25.4297 107.836 25.4297C106.98 25.4297 106.293 25.4167 105.775 25.3908L102.742 25.3519L99.8256 25.3908C99.3072 25.4167 98.5943 25.4297 97.687 25.4297C97.6352 25.4297 97.6092 25.3519 97.6092 25.1964C97.6092 25.0408 97.6352 24.9631 97.687 24.9631C98.8017 24.9631 99.6182 24.8983 100.137 24.7687C100.655 24.6391 101.005 24.3928 101.187 24.0299C101.394 23.6411 101.498 23.0578 101.498 22.2801V4.27716C101.498 3.47358 101.407 2.91625 101.225 2.60518C101.044 2.26819 100.707 2.06082 100.214 1.98305C99.7219 1.87936 98.8924 1.82752 97.7259 1.82752Z" fill="white"/>
<path d="M120.659 5.67696C120.659 6.68793 120.905 7.56928 121.398 8.32103C121.89 9.07277 122.486 9.70787 123.186 10.2263C123.912 10.7188 124.897 11.341 126.141 12.0927C127.515 12.9222 128.565 13.6092 129.291 14.1535C130.043 14.6979 130.678 15.3978 131.196 16.2532C131.741 17.0827 132.013 18.0807 132.013 19.2472C132.013 20.4915 131.702 21.6191 131.08 22.6301C130.457 23.6411 129.537 24.4446 128.319 25.0408C127.126 25.6111 125.688 25.8963 124.003 25.8963C122.007 25.8963 120.179 25.4426 118.52 24.5354C118.391 24.4576 118.3 24.3669 118.248 24.2632C118.222 24.1595 118.196 24.004 118.17 23.7966L117.665 18.5085C117.639 18.4048 117.691 18.34 117.82 18.314C117.976 18.2881 118.067 18.327 118.093 18.4307C118.507 20.2971 119.272 21.9043 120.387 23.2522C121.527 24.6002 123.031 25.2741 124.897 25.2741C126.193 25.2741 127.282 24.9242 128.163 24.2243C129.071 23.4985 129.524 22.3579 129.524 20.8026C129.524 19.6361 129.265 18.6251 128.747 17.7697C128.228 16.9142 127.593 16.2143 126.841 15.67C126.115 15.0997 125.117 14.4387 123.847 13.6869C122.603 12.9352 121.618 12.2871 120.892 11.7428C120.192 11.1984 119.596 10.5115 119.104 9.68194C118.611 8.85243 118.365 7.88035 118.365 6.7657C118.365 5.46959 118.702 4.36789 119.376 3.46062C120.076 2.52742 120.97 1.84048 122.059 1.3998C123.173 0.9332 124.353 0.6999 125.597 0.6999C127.126 0.6999 128.643 1.01097 130.146 1.6331C130.535 1.76271 130.73 1.98305 130.73 2.29412L131.002 6.7657C131.002 6.86939 130.937 6.92123 130.807 6.92123C130.678 6.92123 130.6 6.86939 130.574 6.7657C130.367 5.41774 129.809 4.17348 128.902 3.0329C127.995 1.8664 126.686 1.28315 124.975 1.28315C123.523 1.28315 122.435 1.71087 121.709 2.5663C121.009 3.39581 120.659 4.4327 120.659 5.67696Z" fill="white"/>
<path d="M148.352 25.8963C145.941 25.8963 143.79 25.339 141.897 24.2243C140.031 23.0837 138.579 21.5543 137.542 19.6361C136.531 17.6919 136.026 15.5792 136.026 13.2981C136.026 10.6281 136.7 8.34695 138.048 6.45463C139.396 4.53639 141.12 3.0977 143.219 2.13858C145.345 1.17946 147.509 0.6999 149.713 0.6999C152.175 0.6999 154.34 1.28315 156.206 2.44965C158.073 3.59023 159.499 5.10667 160.484 6.999C161.495 8.89132 162 10.9003 162 13.0259C162 15.3848 161.378 17.5493 160.134 19.5194C158.889 21.4895 157.217 23.0448 155.118 24.1854C153.044 25.326 150.789 25.8963 148.352 25.8963ZM149.713 25.0797C151.476 25.0797 153.057 24.652 154.457 23.7966C155.882 22.9412 156.997 21.6839 157.801 20.0249C158.63 18.3659 159.045 16.3958 159.045 14.1146C159.045 11.678 158.591 9.51345 157.684 7.62113C156.777 5.72881 155.494 4.25124 153.835 3.18843C152.201 2.12562 150.283 1.59422 148.08 1.59422C145.228 1.59422 142.999 2.51445 141.392 4.35493C139.785 6.19541 138.981 8.72282 138.981 11.9372C138.981 14.3739 139.435 16.6032 140.342 18.6251C141.249 20.6211 142.519 22.2024 144.153 23.3689C145.786 24.5094 147.639 25.0797 149.713 25.0797Z" fill="white"/>
</svg>
